<svg width="144" height="113" viewBox="0 0 144 113" fill="none" xmlns="http://www.w3.org/2000/svg">
<path d="M134.86 47.4034C129.87 41.5634 123.05 37.4934 115.85 34.8134C108.65 32.1334 101.03 30.7734 93.4299 29.6734C82.9099 28.1534 72.2199 27.1234 61.6299 28.1934C51.0399 29.2734 41.2699 31.7534 34.3299 36.8634C26.3499 42.7434 20.0399 51.4134 19.7199 61.3234C19.5199 67.5834 21.3799 73.6134 24.5899 78.9634C16.0499 84.7434 9.47995 93.4534 6.56995 103.363C14.6699 97.5934 23.3099 92.5834 32.3399 88.4034C34.6699 90.5534 37.2199 92.4534 39.9099 94.0634C51.4499 100.973 65.1299 103.283 78.5099 104.573C85.31 105.233 92.1299 105.653 98.9599 105.853C105.06 106.023 111.25 106.013 117.14 104.433C128.6 101.373 138.22 92.1334 141.74 80.8034C145.27 69.4734 142.58 56.4134 134.86 47.4034Z" fill="white"/>
<path d="M131.88 46.8734C127.57 43.4034 122.9 41.1934 118.62 39.4434C110 36.0634 102.82 33.9634 97.84 32.5734C95.35 31.8934 93.41 31.4034 92.09 31.0734C90.77 30.7534 90.08 30.5834 90.08 30.5834C90.08 30.5834 90.77 30.7734 92.07 31.1434C93.38 31.5134 95.3 32.0734 97.76 32.8334C102.67 34.3734 109.79 36.6934 118.27 40.2534C122.46 42.0834 126.99 44.3734 131.09 47.8034C135.15 51.2034 138.84 55.8934 140.19 61.6634C141.54 67.4134 140.52 73.9334 137.52 79.6434C134.53 85.3834 129.59 90.2534 123.84 94.0834C118.05 97.8934 111.77 100.673 105.5 102.593C99.21 104.493 92.92 105.563 86.89 106.083C74.83 107.073 63.79 106.063 55 103.483C46.17 100.943 39.74 96.9034 35.76 93.6734C33.76 92.0534 32.33 90.6434 31.4 89.6534C30.47 88.6634 30.01 88.1234 30.01 88.1234C30.01 88.1234 30.45 88.6834 31.35 89.7034C32.24 90.7234 33.63 92.1834 35.58 93.8834C39.47 97.2534 45.84 101.543 54.74 104.333C63.6 107.173 74.77 108.423 87.03 107.603C93.16 107.163 99.57 106.143 106.01 104.243C112.44 102.333 118.88 99.5134 124.85 95.5834C130.78 91.6334 135.94 86.5334 139.06 80.4334C142.18 74.3834 143.21 67.4534 141.67 61.3134C140.91 58.2434 139.51 55.4534 137.78 53.0534C136.06 50.6534 134.02 48.6034 131.88 46.8734Z" fill="#3A4453"/>
<path d="M6.54 105.903C11.7 101.153 17.31 97.4234 22.73 94.6634C24.09 93.9734 25.43 93.3334 26.75 92.7734C27.41 92.4834 28.07 92.2034 28.72 91.9534C29.36 91.7134 30.08 91.3634 30.44 91.3834C30.77 91.3534 31.22 91.8034 31.73 92.2634C32.22 92.7134 32.71 93.1434 33.19 93.5634C34.16 94.3934 35.1 95.1834 36.03 95.9034C39.71 98.7934 42.95 100.773 45.21 102.063C47.48 103.343 48.78 103.963 48.78 103.963C48.78 103.963 47.53 103.243 45.35 101.823C43.18 100.393 40.09 98.2434 36.59 95.2134C35.71 94.4634 34.82 93.6434 33.9 92.7834C33.44 92.3534 32.98 91.9034 32.51 91.4434C32.27 91.2134 32.06 90.9834 31.75 90.7234C31.46 90.4734 31.02 90.2034 30.5 90.1734C30 90.1434 29.59 90.2734 29.24 90.3934C28.91 90.5134 28.57 90.6334 28.24 90.7534C27.57 90.9834 26.89 91.2434 26.21 91.5234C24.84 92.0534 23.45 92.6634 22.05 93.3334C16.44 95.9934 10.61 99.7334 5.32 104.613C5.22 104.703 5.13 104.793 5.03 104.883C9.65 94.6834 15.62 86.6734 20.57 81.3134C21.25 82.1834 21.87 82.8834 22.38 83.3634C22.76 83.7634 23.1 84.0234 23.3 84.2234C23.51 84.4134 23.62 84.5134 23.62 84.5134C23.62 84.5134 23.52 84.4134 23.31 84.2134C23.12 84.0034 22.79 83.7334 22.43 83.3134C21.95 82.8034 21.35 82.0734 20.7 81.1634C23.49 78.1334 25.91 75.8834 27.63 74.3834C28.48 73.6134 29.18 73.0734 29.63 72.6734C30.09 72.2834 30.33 72.0834 30.33 72.0834C30.33 72.0834 30.08 72.2634 29.59 72.6134C29.11 72.9734 28.37 73.4734 27.47 74.1834C25.68 75.5534 23.15 77.6334 20.23 80.4834C20.01 80.1534 19.79 79.8134 19.57 79.4334C19.45 79.2334 19.34 79.0334 19.22 78.8234C20.72 77.1534 22.09 75.6734 23.22 74.5134C24.95 72.7434 26.03 71.6434 26.03 71.6434C26.03 71.6434 25.7 71.8434 25.1 72.1934C24.5 72.5534 23.65 73.1034 22.63 73.8334C21.41 74.7034 19.96 75.8634 18.45 77.2834C16.8 73.6734 15.47 68.5834 15.69 62.4634C15.77 60.6134 16.01 58.6834 16.56 56.7634C17.12 54.8434 17.99 52.9434 19.16 51.1334C21.49 47.4934 24.89 44.2234 28.77 41.2234C32.63 38.1934 37.09 35.5434 41.95 33.3434C46.83 31.1834 52.14 29.5534 57.72 28.6434C63.3 27.7334 68.87 27.6534 74.23 27.8734C79.6 28.1234 84.76 28.6134 89.65 29.3634C99.43 30.8134 108.02 33.3234 114.97 36.0834C121.92 38.8534 127.19 41.9234 130.7 44.2034C131.57 44.7834 132.36 45.2934 133.02 45.7534C133.67 46.2334 134.22 46.6334 134.67 46.9634C135.56 47.6134 136.03 47.9634 136.03 47.9634C136.03 47.9634 135.58 47.6034 134.72 46.9034C134.29 46.5534 133.75 46.1234 133.12 45.6234C132.48 45.1334 131.71 44.5934 130.86 43.9734C127.43 41.5434 122.25 38.2634 115.31 35.2534C108.39 32.2634 99.75 29.5034 89.89 27.8734C84.96 27.0434 79.74 26.4734 74.31 26.1634C68.9 25.8634 63.21 25.9134 57.46 26.8534C51.72 27.7834 46.26 29.5034 41.27 31.7634C36.3 34.0634 31.77 36.8534 27.86 40.0134C23.95 43.1434 20.5 46.5834 18.15 50.4634C16.97 52.3934 16.09 54.4234 15.56 56.4634C15.04 58.5034 14.84 60.5134 14.82 62.4234C14.79 68.7534 16.36 73.9334 18.19 77.5334C17.28 78.4034 16.35 79.3634 15.44 80.4134C12.94 83.3234 11.13 86.3034 9.99 88.5334C9.42 89.6434 9 90.5634 8.74 91.2134C8.48 91.8634 8.33 92.2134 8.33 92.2134C8.33 92.2134 9.26 90.9834 10.75 89.0034C12.25 87.0434 14.37 84.4034 16.8 81.5834C17.56 80.7034 18.31 79.8534 19.03 79.0434C19.14 79.2234 19.24 79.3934 19.35 79.5634C19.6 79.9534 19.84 80.2934 20.09 80.6334C14.12 86.4434 6.66 95.8334 1.66 108.313L0 112.443L3.12 109.253C3.87 108.483 5.16 107.163 6.54 105.903Z" fill="#3A4453"/>
<path d="M57.9 56.15V77H54.48V67.88H44.67V77H41.25V56.15H44.67V65.09H54.48V56.15H57.9ZM77.5523 68.33C77.5523 68.95 77.5123 69.51 77.4323 70.01H64.8023C64.9023 71.33 65.3923 72.39 66.2723 73.19C67.1523 73.99 68.2323 74.39 69.5123 74.39C71.3523 74.39 72.6523 73.62 73.4123 72.08H77.1023C76.6023 73.6 75.6923 74.85 74.3723 75.83C73.0723 76.79 71.4523 77.27 69.5123 77.27C67.9323 77.27 66.5123 76.92 65.2523 76.22C64.0123 75.5 63.0323 74.5 62.3123 73.22C61.6123 71.92 61.2623 70.42 61.2623 68.72C61.2623 67.02 61.6023 65.53 62.2823 64.25C62.9823 62.95 63.9523 61.95 65.1923 61.25C66.4523 60.55 67.8923 60.2 69.5123 60.2C71.0723 60.2 72.4623 60.54 73.6823 61.22C74.9023 61.9 75.8523 62.86 76.5323 64.1C77.2123 65.32 77.5523 66.73 77.5523 68.33ZM73.9823 67.25C73.9623 65.99 73.5123 64.98 72.6323 64.22C71.7523 63.46 70.6623 63.08 69.3623 63.08C68.1823 63.08 67.1723 63.46 66.3323 64.22C65.4923 64.96 64.9923 65.97 64.8323 67.25H73.9823ZM84.338 54.8V77H80.918V54.8H84.338ZM92.2481 54.8V77H88.8281V54.8H92.2481ZM103.908 77.27C102.348 77.27 100.938 76.92 99.6783 76.22C98.4183 75.5 97.4283 74.5 96.7083 73.22C95.9883 71.92 95.6283 70.42 95.6283 68.72C95.6283 67.04 95.9983 65.55 96.7383 64.25C97.4783 62.95 98.4883 61.95 99.7683 61.25C101.048 60.55 102.478 60.2 104.058 60.2C105.638 60.2 107.068 60.55 108.348 61.25C109.628 61.95 110.638 62.95 111.378 64.25C112.118 65.55 112.488 67.04 112.488 68.72C112.488 70.4 112.108 71.89 111.348 73.19C110.588 74.49 109.548 75.5 108.228 76.22C106.928 76.92 105.488 77.27 103.908 77.27ZM103.908 74.3C104.788 74.3 105.608 74.09 106.368 73.67C107.148 73.25 107.778 72.62 108.258 71.78C108.738 70.94 108.978 69.92 108.978 68.72C108.978 67.52 108.748 66.51 108.288 65.69C107.828 64.85 107.218 64.22 106.458 63.8C105.698 63.38 104.878 63.17 103.998 63.17C103.118 63.17 102.298 63.38 101.538 63.8C100.798 64.22 100.208 64.85 99.7683 65.69C99.3283 66.51 99.1083 67.52 99.1083 68.72C99.1083 70.5 99.5583 71.88 100.458 72.86C101.378 73.82 102.528 74.3 103.908 74.3ZM120.159 56.15L119.769 70.7H116.919L116.529 56.15H120.159ZM118.449 77.21C117.829 77.21 117.309 77 116.889 76.58C116.469 76.16 116.259 75.64 116.259 75.02C116.259 74.4 116.469 73.88 116.889 73.46C117.309 73.04 117.829 72.83 118.449 72.83C119.049 72.83 119.559 73.04 119.979 73.46C120.399 73.88 120.609 74.4 120.609 75.02C120.609 75.64 120.399 76.16 119.979 76.58C119.559 77 119.049 77.21 118.449 77.21Z" fill="#3F88F0"/>
<path opacity="0.53" d="M105.069 21.1878L107.382 1.00001" stroke="#3F88F0" stroke-width="3"/>
<path opacity="0.53" d="M111.305 24.2803L121.606 11.4424" stroke="#3F88F0" stroke-width="3"/>
</svg>
