<svg width="64" height="18" viewBox="0 0 64 18" fill="none" xmlns="http://www.w3.org/2000/svg">
<path d="M8.40554 4.50781C8.34588 3.94957 8.09446 3.51491 7.65128 3.20384C7.21236 2.89276 6.64134 2.73722 5.93821 2.73722C5.44389 2.73722 5.01989 2.81179 4.66619 2.96094C4.3125 3.11008 4.0419 3.3125 3.8544 3.56818C3.6669 3.82386 3.57102 4.11577 3.56676 4.44389C3.56676 4.71662 3.62855 4.95312 3.75213 5.15341C3.87997 5.35369 4.05256 5.52415 4.26989 5.66477C4.48722 5.80114 4.72798 5.91619 4.99219 6.00994C5.25639 6.10369 5.52273 6.18253 5.79119 6.24645L7.01847 6.55327C7.51278 6.66832 7.98793 6.82386 8.44389 7.01989C8.90412 7.21591 9.31534 7.46307 9.67756 7.76136C10.044 8.05966 10.3338 8.41974 10.5469 8.84162C10.7599 9.26349 10.8665 9.75781 10.8665 10.3246C10.8665 11.0916 10.6705 11.767 10.2784 12.3509C9.88636 12.9304 9.3196 13.3842 8.57812 13.7124C7.84091 14.0362 6.94815 14.1982 5.89986 14.1982C4.88139 14.1982 3.99716 14.0405 3.24716 13.7251C2.50142 13.4098 1.91761 12.9496 1.49574 12.3445C1.07813 11.7393 0.852273 11.0021 0.818182 10.1328H3.15128C3.18537 10.5888 3.32599 10.968 3.57315 11.2706C3.82031 11.5732 4.14205 11.799 4.53835 11.9482C4.93892 12.0973 5.38636 12.1719 5.88068 12.1719C6.39631 12.1719 6.84801 12.0952 7.2358 11.9418C7.62784 11.7841 7.93466 11.5668 8.15625 11.2898C8.37784 11.0085 8.49077 10.6804 8.49503 10.3054C8.49077 9.96449 8.39063 9.68324 8.1946 9.46165C7.99858 9.2358 7.72372 9.0483 7.37003 8.89915C7.0206 8.74574 6.61151 8.60937 6.14276 8.49006L4.65341 8.10653C3.57528 7.82955 2.72301 7.4098 2.09659 6.8473C1.47443 6.28054 1.16335 5.52841 1.16335 4.59091C1.16335 3.8196 1.37216 3.14418 1.78977 2.56463C2.21165 1.98509 2.7848 1.53551 3.50923 1.21591C4.23366 0.892045 5.05398 0.730113 5.97017 0.730113C6.89915 0.730113 7.71307 0.892045 8.41193 1.21591C9.11506 1.53551 9.6669 1.98082 10.0675 2.55185C10.468 3.11861 10.6747 3.7706 10.6875 4.50781H8.40554ZM15.7037 14.1982C15.0815 14.1982 14.5211 14.0874 14.0225 13.8658C13.5282 13.6399 13.1362 13.3075 12.8464 12.8686C12.5609 12.4297 12.4181 11.8885 12.4181 11.245C12.4181 10.6911 12.5204 10.233 12.725 9.87074C12.9295 9.50852 13.2086 9.21875 13.5623 9.00142C13.916 8.78409 14.3145 8.62003 14.7576 8.50923C15.2051 8.39418 15.6674 8.31108 16.1447 8.25994C16.72 8.20028 17.1866 8.14702 17.5446 8.10014C17.9025 8.04901 18.1625 7.9723 18.3244 7.87003C18.4906 7.76349 18.5737 7.59943 18.5737 7.37784V7.33949C18.5737 6.85795 18.4309 6.48509 18.1454 6.22088C17.8599 5.95668 17.4487 5.82457 16.9118 5.82457C16.345 5.82457 15.8954 5.94815 15.563 6.19531C15.2349 6.44247 15.0133 6.73437 14.8983 7.07102L12.7377 6.7642C12.9082 6.16761 13.1895 5.66903 13.5815 5.26847C13.9735 4.86364 14.4529 4.56108 15.0197 4.3608C15.5865 4.15625 16.2129 4.05398 16.899 4.05398C17.372 4.05398 17.8429 4.10938 18.3116 4.22017C18.7804 4.33097 19.2086 4.5142 19.5964 4.76989C19.9842 5.02131 20.2953 5.36435 20.5297 5.79901C20.7683 6.23366 20.8876 6.77699 20.8876 7.42898V14H18.6632V12.6513H18.5865C18.4458 12.924 18.2477 13.1797 17.992 13.4183C17.7406 13.6527 17.4231 13.8423 17.0396 13.9872C16.6603 14.1278 16.215 14.1982 15.7037 14.1982ZM16.3045 12.4979C16.769 12.4979 17.1717 12.4062 17.5126 12.223C17.8535 12.0355 18.1156 11.7884 18.2988 11.4815C18.4863 11.1747 18.5801 10.8402 18.5801 10.478V9.32102C18.5076 9.38068 18.3841 9.43608 18.2093 9.48722C18.0389 9.53835 17.8471 9.5831 17.6341 9.62145C17.421 9.6598 17.21 9.69389 17.0012 9.72372C16.7924 9.75355 16.6113 9.77912 16.4579 9.80043C16.1127 9.8473 15.8038 9.92401 15.5311 10.0305C15.2583 10.1371 15.0431 10.2862 14.8855 10.478C14.7278 10.6655 14.649 10.9084 14.649 11.2067C14.649 11.6328 14.8045 11.9545 15.1156 12.1719C15.4267 12.3892 15.823 12.4979 16.3045 12.4979ZM26.0396 14.1982C25.4174 14.1982 24.8571 14.0874 24.3585 13.8658C23.8642 13.6399 23.4721 13.3075 23.1824 12.8686C22.8968 12.4297 22.7541 11.8885 22.7541 11.245C22.7541 10.6911 22.8564 10.233 23.0609 9.87074C23.2654 9.50852 23.5446 9.21875 23.8983 9.00142C24.252 8.78409 24.6504 8.62003 25.0936 8.50923C25.541 8.39418 26.0034 8.31108 26.4806 8.25994C27.0559 8.20028 27.5225 8.14702 27.8805 8.10014C28.2385 8.04901 28.4984 7.9723 28.6603 7.87003C28.8265 7.76349 28.9096 7.59943 28.9096 7.37784V7.33949C28.9096 6.85795 28.7669 6.48509 28.4814 6.22088C28.1958 5.95668 27.7846 5.82457 27.2477 5.82457C26.6809 5.82457 26.2314 5.94815 25.899 6.19531C25.5708 6.44247 25.3493 6.73437 25.2342 7.07102L23.0737 6.7642C23.2441 6.16761 23.5254 5.66903 23.9174 5.26847C24.3095 4.86364 24.7889 4.56108 25.3556 4.3608C25.9224 4.15625 26.5488 4.05398 27.2349 4.05398C27.7079 4.05398 28.1788 4.10938 28.6476 4.22017C29.1163 4.33097 29.5446 4.5142 29.9324 4.76989C30.3201 5.02131 30.6312 5.36435 30.8656 5.79901C31.1042 6.23366 31.2235 6.77699 31.2235 7.42898V14H28.9991V12.6513H28.9224C28.7818 12.924 28.5836 13.1797 28.3279 13.4183C28.0765 13.6527 27.7591 13.8423 27.3755 13.9872C26.9963 14.1278 26.551 14.1982 26.0396 14.1982ZM26.6404 12.4979C27.1049 12.4979 27.5076 12.4062 27.8485 12.223C28.1895 12.0355 28.4515 11.7884 28.6348 11.4815C28.8223 11.1747 28.916 10.8402 28.916 10.478V9.32102C28.8436 9.38068 28.72 9.43608 28.5453 9.48722C28.3748 9.53835 28.1831 9.5831 27.97 9.62145C27.7569 9.6598 27.546 9.69389 27.3372 9.72372C27.1284 9.75355 26.9473 9.77912 26.7939 9.80043C26.4487 9.8473 26.1397 9.92401 25.867 10.0305C25.5943 10.1371 25.3791 10.2862 25.2214 10.478C25.0637 10.6655 24.9849 10.9084 24.9849 11.2067C24.9849 11.6328 25.1404 11.9545 25.4515 12.1719C25.7626 12.3892 26.1589 12.4979 26.6404 12.4979ZM41.3102 6.77699L39.2008 7.0071C39.1412 6.79403 39.0368 6.59375 38.8876 6.40625C38.7427 6.21875 38.5467 6.06747 38.2995 5.95241C38.0524 5.83736 37.7498 5.77983 37.3919 5.77983C36.9103 5.77983 36.5055 5.88423 36.1774 6.09304C35.8535 6.30185 35.6937 6.57244 35.698 6.90483C35.6937 7.19034 35.7981 7.42259 36.0112 7.60156C36.2285 7.78054 36.5865 7.92756 37.0851 8.04261L38.7598 8.40057C39.6887 8.60085 40.3791 8.91832 40.8308 9.35298C41.2868 9.78764 41.5169 10.3565 41.5211 11.0597C41.5169 11.6776 41.3358 12.223 40.9778 12.696C40.6241 13.1648 40.1319 13.5312 39.5012 13.7955C38.8706 14.0597 38.1461 14.1918 37.3279 14.1918C36.1262 14.1918 35.1589 13.9403 34.426 13.4375C33.693 12.9304 33.2562 12.2251 33.1156 11.3217L35.372 11.1044C35.4743 11.5476 35.6916 11.8821 36.024 12.108C36.3564 12.3338 36.7889 12.4467 37.3216 12.4467C37.8713 12.4467 38.3123 12.3338 38.6447 12.108C38.9814 11.8821 39.1497 11.603 39.1497 11.2706C39.1497 10.9893 39.041 10.7571 38.8237 10.5739C38.6106 10.3906 38.2782 10.25 37.8265 10.152L36.1518 9.80043C35.21 9.6044 34.5133 9.27415 34.0616 8.80966C33.6099 8.34091 33.3862 7.74858 33.3904 7.03267C33.3862 6.42756 33.5502 5.90341 33.8826 5.46023C34.2193 5.01278 34.6859 4.66761 35.2825 4.42472C35.8833 4.17756 36.5758 4.05398 37.3599 4.05398C38.5105 4.05398 39.416 4.29901 40.0765 4.78906C40.7413 5.27912 41.1525 5.94176 41.3102 6.77699ZM43.4292 14V4.18182H45.7431V14H43.4292ZM44.5925 2.78835C44.226 2.78835 43.9107 2.6669 43.6465 2.42401C43.3823 2.17685 43.2502 1.88068 43.2502 1.53551C43.2502 1.18608 43.3823 0.889914 43.6465 0.647016C43.9107 0.399857 44.226 0.276278 44.5925 0.276278C44.9632 0.276278 45.2786 0.399857 45.5385 0.647016C45.8027 0.889914 45.9348 1.18608 45.9348 1.53551C45.9348 1.88068 45.8027 2.17685 45.5385 2.42401C45.2786 2.6669 44.9632 2.78835 44.5925 2.78835ZM53.0955 4.18182V5.97159H47.2915V4.18182H53.0955ZM48.7425 14V3.25497C48.7425 2.59446 48.8789 2.04474 49.1516 1.60582C49.4286 1.1669 49.7994 0.838778 50.2638 0.621448C50.7283 0.404119 51.244 0.295454 51.8107 0.295454C52.2113 0.295454 52.5671 0.327414 52.8782 0.391335C53.1893 0.455255 53.4194 0.512784 53.5685 0.56392L53.1083 2.35369C53.0103 2.32386 52.8867 2.29403 52.7376 2.2642C52.5884 2.23011 52.4222 2.21307 52.239 2.21307C51.8086 2.21307 51.5039 2.31747 51.3249 2.52628C51.1502 2.73082 51.0629 3.02486 51.0629 3.40838V14H48.7425ZM56.3459 17.6818C56.0305 17.6818 55.7386 17.6563 55.4702 17.6051C55.206 17.5582 54.995 17.5028 54.8374 17.4389L55.3743 15.6364C55.7109 15.7344 56.0114 15.7813 56.2756 15.777C56.5398 15.7727 56.772 15.6896 56.9723 15.5277C57.1768 15.37 57.3494 15.1058 57.4901 14.7351L57.6882 14.2045L54.1278 4.18182H56.5824L58.8452 11.5966H58.9474L61.2166 4.18182H63.6776L59.7464 15.1889C59.5632 15.7088 59.3203 16.1541 59.0178 16.5249C58.7152 16.8999 58.3445 17.1854 57.9055 17.3814C57.4709 17.5817 56.951 17.6818 56.3459 17.6818Z" fill="white"/>
</svg>
